# File created by Blade
# Date/Time:  Thu Jan 22 19:34:15 2015
# Frame Rate: 120.000 fps
#------------------------------------------------------
:FULLY-SPECIFIED
:DEGREES
1240
root -9.898471 21.845354 -11.277186 56.989783 -39.641444 2.611591
RightUpLeg -127.421340 -7.374073 9.743972
RightLeg 90.474335 -0.000000 -0.000000
RightFoot -25.973493 -3.568840 0.720896
RightToeBase 2.883780 -0.000000 -0.000000
LeftUpLeg -33.997510 45.490931 19.500949
LeftLeg 9.224215 -0.000000 -0.000000
LeftFoot -17.550089 4.638768 -35.382780
LeftToeBase 17.539567 -0.000000 -0.000000
Spine 24.112725 -3.292246 8.721552
RightShoulder 2.673624 7.583148 -15.846795
RightArm 46.525166 -2.838378 53.203167
RightForeArm -0.559864 -0.000000 21.706277
RightHand 11.840595 -0.000000 -9.763274
RightHandThumb1 -24.326973 -0.000000 -32.862282
LeftShoulder -6.578527 -26.067058 28.881967
LeftArm 44.814279 21.032559 -91.437182
LeftForeArm 9.783024 -0.000000 19.175416
LeftHand -2.172567 0.000000 2.027290
LeftHandThumb1 -26.253704 0.000000 33.147579
Head -47.339631 23.800233 -8.094012
1241
root -9.795452 21.932568 -11.262776 56.815466 -39.762416 2.708710
RightUpLeg -127.131568 -7.645329 9.714614
RightLeg 89.912579 -0.000000 -0.000000
RightFoot -25.755095 -3.162653 0.875284
RightToeBase 3.183789 -0.000000 -0.000000
LeftUpLeg -34.252390 45.513046 19.049524
LeftLeg 9.380881 -0.000000 -0.000000
LeftFoot -17.549729 4.675298 -34.912693
LeftToeBase 17.005544 -0.000000 -0.000000
Spine 23.744545 -3.318561 8.415377
RightShoulder 2.622988 7.035310 -15.671013
RightArm 46.424304 -3.061387 52.995240
RightForeArm -0.006186 -0.000000 21.837716
RightHand 11.985400 -0.000000 -9.400824
RightHandThumb1 -24.326973 -0.000000 -32.862282
LeftShoulder -6.462643 -25.884973 28.702113
LeftArm 44.387110 21.121011 -91.480770
LeftForeArm 10.229618 -0.000000 19.327451
LeftHand -2.169583 -0.000000 2.147183
LeftHandThumb1 -26.253704 0.000000 33.147579
Head -47.327998 23.697768 -8.140524
1242
root -9.700184 22.014251 -11.249418 56.570078 -39.886264 2.815958
RightUpLeg -126.778139 -7.899063 9.616027
RightLeg 89.374599 -0.000000 -0.000000
RightFoot -25.542360 -2.676813 1.281477
RightToeBase 3.485368 -0.000000 -0.000000
LeftUpLeg -34.368968 45.466395 18.709768
LeftLeg 9.521964 -0.000000 -0.000000
LeftFoot -17.554909 4.803816 -34.358168
LeftToeBase 16.861242 -0.000000 -0.000000
Spine 23.465536 -3.342033 8.114819
RightShoulder 2.577999 7.474000 -15.692861
RightArm 45.370123 -3.407093 53.765574
RightForeArm -0.161987 0.000000 22.045242
RightHand 12.204881 -0.000000 -8.388855
RightHandThumb1 -24.326973 -0.000000 -32.862282
LeftShoulder -6.468738 -25.538942 28.502889
LeftArm 44.135698 21.281919 -91.414227
LeftForeArm 10.681359 0.000000 19.364674
LeftHand -2.090302 -0.000000 2.234645
LeftHandThumb1 -26.253704 0.000000 33.147579
Head -47.369367 23.309621 -8.222375
1243
root -9.607367 22.094672 -11.234976 56.322216 -39.920412 2.946400
RightUpLeg -126.433682 -8.215389 9.525387
RightLeg 88.859692 -0.000000 -0.000000
RightFoot -25.388890 -2.287762 1.569810
RightToeBase 3.916193 -0.000000 -0.000000
LeftUpLeg -34.629437 45.444074 18.321531
LeftLeg 9.716006 -0.000000 -0.000000
LeftFoot -17.576982 4.815379 -33.890336
LeftToeBase 17.141621 -0.000000 -0.000000
Spine 23.095691 -3.408181 7.924980
RightShoulder 2.546036 7.342954 -15.611291
RightArm 44.725912 -3.717333 53.953633
RightForeArm 0.221277 -0.000000 22.343400
RightHand 12.508700 -0.000000 -7.421309
RightHandThumb1 -24.326973 -0.000000 -32.862282
LeftShoulder -6.396255 -25.186348 28.217598
LeftArm 43.837737 21.454339 -91.222779
LeftForeArm 10.956996 -0.000000 19.359289
LeftHand -1.965707 -0.000000 2.397689
LeftHandThumb1 -26.253704 0.000000 33.147579
Head -47.397824 23.265246 -8.467263
1244
root -9.521041 22.169866 -11.220303 55.990418 -39.903660 3.085050
RightUpLeg -126.012542 -8.559374 9.399605
RightLeg 88.427570 -0.000000 -0.000000
RightFoot -25.260926 -1.922375 1.786277
RightToeBase 4.473534 -0.000000 -0.000000
LeftUpLeg -34.748303 45.280295 18.132532
LeftLeg 9.965340 -0.000000 -0.000000
LeftFoot -17.659155 4.815033 -33.450669
LeftToeBase 17.291040 -0.000000 -0.000000
Spine 22.820465 -3.435183 7.770949
RightShoulder 2.408886 6.887215 -15.456105
RightArm 44.348121 -4.027197 53.809328
RightForeArm 0.911792 -0.000000 22.774358
RightHand 12.692287 -0.000000 -7.041273
RightHandThumb1 -24.326973 -0.000000 -32.862282
LeftShoulder -6.255995 -24.783249 27.942219
LeftArm 43.519741 21.564113 -91.011943
LeftForeArm 11.257545 -0.000000 19.431754
LeftHand -1.938417 0.000000 2.309675
LeftHandThumb1 -26.253704 0.000000 33.147579
Head -47.460106 22.831540 -8.575994
1245
root -9.433947 22.247678 -11.204877 55.671327 -39.898525 3.216690
RightUpLeg -125.590311 -8.850176 9.261674
RightLeg 87.927093 -0.000000 -0.000000
RightFoot -25.100887 -1.723899 1.845149
RightToeBase 4.435292 -0.000000 -0.000000
LeftUpLeg -34.796006 44.977828 18.057607
LeftLeg 10.263746 -0.000000 -0.000000
LeftFoot -17.814722 4.985683 -32.738921
LeftToeBase 17.015536 -0.000000 -0.000000
Spine 22.524443 -3.506135 7.619660
RightShoulder 2.323249 6.359858 -15.292498
RightArm 44.056478 -4.344920 53.554549
RightForeArm 1.490137 0.000000 23.269516
RightHand 12.828298 0.000000 -6.889316
RightHandThumb1 -24.326973 -0.000000 -32.862282
LeftShoulder -6.184911 -24.324666 27.688119
LeftArm 43.135495 21.509559 -90.960426
LeftForeArm 11.647457 -0.000000 19.361770
LeftHand -1.856500 0.000000 2.141135
LeftHandThumb1 -26.253704 0.000000 33.147579
Head -47.547997 22.554559 -8.817790
